<svg width="370" height="370" viewBox="0 0 370 370" fill="none" xmlns="http://www.w3.org/2000/svg">
<circle cx="185" cy="185" r="185" fill="#C4622D"/>
<path d="M109.978 263.87C102.095 263.87 94.0684 262.867 85.8984 260.86C77.7284 258.997 70.9201 256.488 65.4734 253.335L66.5484 224.095H68.6984L75.3634 238.07C77.3701 242.083 79.5201 245.667 81.8134 248.82C84.1068 251.83 87.2601 254.195 91.2734 255.915C94.1401 257.348 96.8634 258.352 99.4434 258.925C102.167 259.355 105.177 259.57 108.473 259.57C117.217 259.57 124.097 257.205 129.113 252.475C134.273 247.745 136.853 241.653 136.853 234.2C136.853 227.177 135.133 221.73 131.693 217.86C128.253 213.847 122.735 209.977 115.138 206.25L106.323 202.38C93.9968 196.933 84.3218 190.698 77.2984 183.675C70.4184 176.508 66.9784 167.048 66.9784 155.295C66.9784 146.838 69.1284 139.528 73.4284 133.365C77.8718 127.202 83.9634 122.472 91.7034 119.175C99.5868 115.878 108.76 114.23 119.223 114.23C126.82 114.23 133.987 115.233 140.723 117.24C147.603 119.247 153.552 121.97 158.568 125.41L157.278 151.21H155.128L146.313 135.085C143.877 130.068 141.44 126.557 139.003 124.55C136.567 122.4 133.772 120.895 130.618 120.035C128.755 119.462 127.035 119.103 125.458 118.96C123.882 118.673 121.875 118.53 119.438 118.53C112.128 118.53 105.965 120.68 100.948 124.98C95.9318 129.137 93.4234 134.798 93.4234 141.965C93.4234 149.275 95.3584 155.152 99.2284 159.595C103.098 163.895 108.76 167.765 116.213 171.205L126.103 175.505C139.863 181.525 149.753 187.975 155.773 194.855C161.793 201.592 164.803 210.335 164.803 221.085C164.803 233.698 160.002 244.018 150.398 252.045C140.938 259.928 127.465 263.87 109.978 263.87ZM175.033 260V257.85L179.548 256.13C182.414 255.127 184.278 253.765 185.138 252.045C185.998 250.325 186.428 248.103 186.428 245.38V132.935C186.428 130.068 185.998 127.775 185.138 126.055C184.278 124.335 182.414 122.973 179.548 121.97L175.033 120.25V118.1H228.568V120.25L223.838 122.185C221.401 123.045 219.753 124.335 218.893 126.055C218.033 127.775 217.603 130.14 217.603 133.15V245.595C217.603 248.462 218.033 250.683 218.893 252.26C219.896 253.837 221.759 255.127 224.483 256.13L228.568 257.85V260H175.033ZM254.368 260V257.85L257.163 256.99C260.029 256.13 261.534 254.697 261.678 252.69C261.821 250.683 260.961 248.39 259.098 245.81L217.818 187.115L272.213 131.645C274.219 129.638 275.294 127.703 275.438 125.84C275.724 123.977 274.363 122.543 271.353 121.54L267.698 120.25V118.1H299.088V120.25L293.498 121.97C290.344 122.973 287.836 124.192 285.973 125.625C284.109 127.058 281.959 128.993 279.523 131.43L241.038 170.775L291.563 244.52C293.713 247.673 295.719 250.253 297.583 252.26C299.589 254.267 302.384 255.843 305.968 256.99L308.978 257.85V260H254.368Z" fill="white"/>
</svg>
